<svg xmlns="http://www.w3.org/2000/svg" width="43" height="40" viewBox="0 0 43 40">
    <path fill="#379434" fill-rule="evenodd" d="M11.292 22.577c1.828 0 3.398.38 4.801 1.162l8.344 3.889 5.33-3.079c2.202-1.048 5.495-1.253 7.763.264l.667-.384a3.128 3.128 0 0 1 2.392-.314 3.12 3.12 0 0 1 1.909 1.47c.42.725.532 1.573.314 2.385a3.123 3.123 0 0 1-1.468 1.913L25.37 39.11c-.937.593-2.26.891-3.672.891-1.383 0-2.851-.285-4.129-.86-2.388-1.073-7.85-2.298-10.252-2.298H4.048a.68.68 0 1 1 0-1.358h3.269c2.59 0 8.247 1.265 10.81 2.417 2.386 1.074 5.253.86 6.54.046l15.998-9.24c.415-.24.711-.625.835-1.088a1.77 1.77 0 0 0-.179-1.355 1.776 1.776 0 0 0-1.085-.837 1.777 1.777 0 0 0-1.36.178l-7.963 4.598a.68.68 0 0 1-.68-1.177l5.934-3.426c-1.796-.832-4.195-.596-5.767.152l-4.519 2.611a3.086 3.086 0 0 1 1.016 3.813 3.092 3.092 0 0 1-4.098 1.492l-7.795-2.737a.68.68 0 0 1 .45-1.282l7.856 2.763c.926.427 1.954.052 2.355-.81.4-.862.027-1.89-.833-2.291l-9.356-4.363c-1.256-.698-2.572-1.012-4.184-1.012-1.01 0-4.777 1.875-6.915 3.057a.678.678 0 1 1-.658-1.189c.975-.539 5.92-3.227 7.573-3.227zM.679 22.81a.68.68 0 0 1 .68.679v15.372a.68.68 0 0 1-1.36 0V23.49a.68.68 0 0 1 .68-.68zM22.462 0c6.474 0 11.74 5.266 11.74 11.739 0 6.474-5.266 11.74-11.74 11.74-6.472 0-11.738-5.266-11.739-11.74C10.723 5.266 15.99 0 22.463 0zm0 1.359c-5.723 0-10.38 4.656-10.38 10.38 0 5.724 4.657 10.381 10.38 10.381 5.725 0 10.382-4.657 10.382-10.381s-4.658-10.38-10.382-10.38zM16.38 5.656a.679.679 0 1 1 .961.961 7.195 7.195 0 0 0-2.122 5.123 7.2 7.2 0 0 0 2.122 5.122 7.198 7.198 0 0 0 5.122 2.122 7.194 7.194 0 0 0 5.124-2.122.679.679 0 1 1 .96.96 8.542 8.542 0 0 1-6.083 2.521 8.55 8.55 0 0 1-6.084-2.52 8.545 8.545 0 0 1-2.52-6.083c0-2.299.895-4.46 2.52-6.084zm6.732-.055c.188 0 .34.151.34.34v.276c.772.066 1.414.308 1.908.723.58.486.892 1.252.929 2.278a.34.34 0 0 1-.34.35h-.464a.34.34 0 0 1-.34-.318c-.042-.697-.235-1.188-.572-1.463-.285-.231-.661-.376-1.122-.431v3.16l.695.17c.427.104.793.241 1.089.406.302.17.551.368.74.59.194.228.332.48.41.748.075.253.112.526.112.81 0 .516-.103.957-.308 1.313a2.56 2.56 0 0 1-.797.86c-.318.213-.685.37-1.09.465a5.854 5.854 0 0 1-.85.131v.754c0 .188-.152.34-.34.34h-.392a.34.34 0 0 1-.34-.34v-.773a5.519 5.519 0 0 1-.997-.232 2.934 2.934 0 0 1-1.071-.631 2.86 2.86 0 0 1-.696-1.046c-.16-.41-.243-.907-.243-1.476a.34.34 0 0 1 .34-.34h.464a.34.34 0 0 1 .34.34c0 .686.177 1.215.542 1.619.298.328.74.537 1.322.623v-3.428l-.312-.072a6.384 6.384 0 0 1-.815-.239 2.971 2.971 0 0 1-.789-.429 2.096 2.096 0 0 1-.597-.726c-.15-.296-.226-.663-.226-1.09 0-.16.022-.37.066-.636.048-.3.182-.602.397-.897.212-.293.528-.551.935-.767.346-.183.787-.296 1.34-.343v-.28a.34.34 0 0 1 .34-.34zm.34 6.067v3.2c.199-.014.39-.043.572-.087.269-.063.507-.164.708-.3a1.41 1.41 0 0 0 .456-.495c.11-.195.164-.446.164-.745 0-.375-.111-.669-.34-.898-.248-.247-.665-.448-1.238-.595l-.323-.08zM22.38 7.37a2.803 2.803 0 0 0-.598.132c-.242.086-.441.198-.593.332a1.077 1.077 0 0 0-.303.437c-.068.181-.1.38-.1.592 0 .232.034.423.105.566.071.147.165.264.285.361.13.102.286.187.465.251.205.073.423.137.654.191l.085.018z"/>
</svg>
