<svg xmlns="http://www.w3.org/2000/svg" width="36" height="40" viewBox="0 0 36 40">
    <path fill="#379434" fill-rule="evenodd" d="M32.805 38.67a.665.665 0 1 1 0 1.33H.665a.665.665 0 1 1 0-1.33zM18.378 0c.367 0 .665.297.665.665v.681h4.272a2.431 2.431 0 0 1 2.429 2.429v8.008a.666.666 0 0 1-1.331 0V3.775c0-.606-.492-1.098-1.098-1.098h-4.409a2.423 2.423 0 0 1-2.292 1.658H9.281a2.421 2.421 0 0 1-2.29-1.658H2.58a1.1 1.1 0 0 0-1.099 1.098v30.063a1.1 1.1 0 0 0 1.1 1.098h20.733c.606 0 1.098-.492 1.098-1.098v-6.272a.665.665 0 1 1 1.33 0v6.272c0 1.34-1.09 2.429-2.428 2.429H2.581a2.432 2.432 0 0 1-2.43-2.429V3.775a2.432 2.432 0 0 1 2.43-2.429h4.272v-.68c0-.369.299-.666.666-.666zm14.225 10.689c.793 0 1.54.31 2.102.87.562.563.87 1.31.87 2.104a2.946 2.946 0 0 1-.872 2.096L20.831 29.633c-.006.005-.013.007-.02.012a.659.659 0 0 1-.167.12l-6.059 2.853-1.046 1.047a.663.663 0 0 1-.941 0 .666.666 0 0 1 0-.94l1.051-1.053 2.85-6.053a.663.663 0 0 1 .12-.17c.005-.004.007-.012.012-.017l11.64-11.641-.423-.422-5.117 5.117c-.253.254-.591.395-.952.395s-.699-.14-.953-.394a.665.665 0 1 1 .942-.94c.001.002.004.004.01.004l5.6-5.593c.26-.26.68-.26.94 0l.894.892 1.292-1.291a2.95 2.95 0 0 1 2.099-.87zM17.3 27.042l-1.71 3.632 3.631-1.71-1.921-1.922zm-5.096-.029a.665.665 0 1 1 0 1.331H5.675a.665.665 0 1 1 0-1.33zm17.008-12.282l-11.17 11.172 1.16 1.16 1.158 1.159L31.53 17.05l-2.318-2.32zm-13.97 5.873a.666.666 0 0 1 0 1.33H5.675a.665.665 0 1 1 0-1.33zm1.867-3.827a.665.665 0 1 1 0 1.33H5.675a.665.665 0 1 1 0-1.33zM33.764 12.5c-.62-.62-1.7-.618-2.32 0l-1.292 1.29 2.32 2.32 1.291-1.292c.31-.31.48-.72.481-1.156 0-.439-.17-.852-.48-1.162zm-13.543.45a.666.666 0 0 1 0 1.33H5.675a.665.665 0 1 1 0-1.33zm-6.77-5.072a.665.665 0 1 1 0 1.33H5.674a.665.665 0 1 1 0-1.33zm4.262-6.547H8.184v.577c0 .605.492 1.097 1.097 1.097h7.333a1.1 1.1 0 0 0 1.099-1.097v-.577z"/>
</svg>
