<svg xmlns="http://www.w3.org/2000/svg" width="36" height="40" viewBox="0 0 36 40">
    <path fill="#379434" fill-rule="evenodd" d="M17.89 0c.208 0 .405.094.536.255.039.048 3.913 4.741 8.562 4.741 4.789 0 7.706-1.801 7.735-1.82a.69.69 0 1 1 1.058.584v18.6c-.045 4.878-2.29 10.387-17.597 17.574a.68.68 0 0 1-.586 0C2.13 32.672 0 27.124 0 22.21V3.76a.69.69 0 0 1 1.057-.584c.028.017 2.974 1.82 7.737 1.82 4.66 0 8.523-4.693 8.562-4.74A.69.69 0 0 1 17.89 0zm0 1.728c-1.302 1.386-4.822 4.648-9.096 4.648-3.496 0-6.069-.886-7.415-1.49V22.21c0 4.43 2.009 9.474 16.512 16.338C32.392 31.684 34.4 26.64 34.4 22.21V4.887c-1.346.603-3.919 1.489-7.413 1.489-4.275 0-7.794-3.262-9.097-4.648zm-2.04 8.183c2.74-.547 5.53.01 7.854 1.561a.69.69 0 0 1-.766 1.148 9.028 9.028 0 0 0-6.818-1.357c-4.913.978-8.115 5.77-7.14 10.681.979 4.913 5.771 8.114 10.682 7.138 4.913-.977 8.115-5.769 7.139-10.681a.69.69 0 1 1 1.352-.27c1.125 5.66-2.563 11.179-8.221 12.303a10.388 10.388 0 0 1-7.855-1.562 10.39 10.39 0 0 1-4.449-6.658c-1.125-5.658 2.564-11.178 8.222-12.303zm11.35 2.352a.69.69 0 0 1 .976.975l-11.46 11.459a.688.688 0 0 1-.975 0l-4.038-4.036a.69.69 0 0 1 .976-.976l3.55 3.55z"/>
</svg>
