<svg xmlns="http://www.w3.org/2000/svg" width="32" height="35" viewBox="0 0 32 35">
    <path fill="#FFF" fill-rule="evenodd" d="M21.679 10L32 20.742l-2.461 2.562-.43.447c-2.037 4.188-5.542 7.558-9.628 9.733A24.026 24.026 0 0 1 16 35V21.034l-5.68-5.91-4.575 4.762v8.2a20.436 20.436 0 0 1-2.854-4.335L0 20.742 10.32 10H21.68zm-1.442 3.623h-6.435l5.624 5.854.055.057 1.161 1.208-1.161 1.208v7.372c3.277-2.138 5.966-5.223 7.24-8.95l-6.484-6.75zm-8.194 10.686v1.794h-1.56v-1.794h1.56zm-1.886 0v1.794H8.598v-1.794h1.56zm.327-2.634c1.129.185 1.559.978 1.559 2.295h-1.56zm-.327 0v2.295H8.598c0-1.317.43-2.11 1.56-2.295zM2 3.086c8.834-4.115 20.166-4.115 29 0V15l-3.365-3.624V5.565c-6.963-2.589-15.308-2.589-22.27 0v5.81L2 15z"/>
</svg>
